<?xml version="1.0" encoding="UTF-8" standalone="no"?>
<!-- Created with Inkscape (http://www.inkscape.org/) -->

<svg
   width="43.939198mm"
   height="10.914447mm"
   viewBox="0 0 43.939198 10.914447"
   version="1.1"
   id="svg1"
   inkscape:version="1.3.2 (091e20ef0f, 2023-11-25)"
   sodipodi:docname="endeal_logo_v2.svg"
   xmlns:inkscape="http://www.inkscape.org/namespaces/inkscape"
   xmlns:sodipodi="http://sodipodi.sourceforge.net/DTD/sodipodi-0.dtd"
   xmlns:xlink="http://www.w3.org/1999/xlink"
   xmlns="http://www.w3.org/2000/svg"
   xmlns:svg="http://www.w3.org/2000/svg">
  <sodipodi:namedview
     id="namedview1"
     pagecolor="#ffffff"
     bordercolor="#000000"
     borderopacity="0.25"
     inkscape:showpageshadow="2"
     inkscape:pageopacity="0.0"
     inkscape:pagecheckerboard="false"
     inkscape:deskcolor="#d1d1d1"
     inkscape:document-units="mm"
     inkscape:zoom="4"
     inkscape:cx="98.5"
     inkscape:cy="2.875"
     inkscape:window-width="1499"
     inkscape:window-height="1243"
     inkscape:window-x="844"
     inkscape:window-y="369"
     inkscape:window-maximized="0"
     inkscape:current-layer="g2"
     showguides="false"
     labelstyle="default">
    <sodipodi:guide
       position="43.93821,287.82134"
       orientation="1,0"
       id="guide1"
       inkscape:locked="false" />
    <sodipodi:guide
       position="15.765904,289.24094"
       orientation="1,0"
       id="guide2"
       inkscape:locked="false" />
  </sodipodi:namedview>
  <defs
     id="defs1">
    <linearGradient
       id="linearGradient1"
       inkscape:collect="always">
      <stop
         style="stop-color:#efb318;stop-opacity:1;"
         offset="0.31999999"
         id="stop1" />
      <stop
         style="stop-color:#b78b1b;stop-opacity:1;"
         offset="0.81440973"
         id="stop2" />
    </linearGradient>
    <linearGradient
       inkscape:collect="always"
       xlink:href="#linearGradient1"
       id="linearGradient2"
       x1="58.048489"
       y1="33.418991"
       x2="58.041241"
       y2="26.118813"
       gradientUnits="userSpaceOnUse" />
  </defs>
  <g
     inkscape:label="Layer 1"
     inkscape:groupmode="layer"
     id="layer1"
     style="display:inline;opacity:1"
     transform="translate(-35.767841,-24.317143)">
    <g
       id="g2"
       transform="matrix(1.035683,0,0,1.1870425,-2.84419,-6.589806)"
       style="display:inline">
      <path
         style="font-weight:bold;font-size:11.2889px;font-family:Fredoka;-inkscape-font-specification:'Fredoka Bold';display:inline;fill:url(#linearGradient2);stroke-width:0.264583"
         d="m 38.308998,33.939918 q -0.508001,0 -0.72249,-0.146756 -0.214489,-0.158044 -0.259644,-0.395111 -0.04516,-0.248356 -0.04516,-0.496712 v -5.836361 q 0,-0.587023 0.225778,-0.801512 0.237067,-0.225778 0.835379,-0.225778 h 4.131737 q 0.259645,0 0.485423,0.04516 0.237067,0.04516 0.383823,0.259645 0.158044,0.214489 0.158044,0.733779 0,0.508 -0.158044,0.722489 -0.146756,0.214489 -0.383823,0.259645 -0.237067,0.04516 -0.496712,0.04516 h -3.115736 v 1.004713 h 2.088446 q 0.259645,0 0.462845,0.04516 0.2032,0.03387 0.327378,0.214489 0.124178,0.180623 0.124178,0.632179 0,0.428978 -0.124178,0.620889 -0.124178,0.180623 -0.338667,0.214489 -0.214489,0.03387 -0.474133,0.03387 h -2.065869 v 1.004712 h 3.127025 q 0.259645,0 0.485423,0.04516 0.237067,0.04515 0.383823,0.259645 0.158044,0.214489 0.158044,0.733778 0,0.508001 -0.158044,0.72249 -0.146756,0.214489 -0.383823,0.259644 -0.237067,0.04516 -0.496712,0.04516 z m 6.683036,0 q -0.496711,0 -0.7112,-0.146756 -0.21449,-0.158044 -0.259645,-0.395111 -0.04516,-0.237067 -0.04516,-0.496712 V 27.0424 q 0,-0.248356 0.04516,-0.474134 0.04516,-0.225778 0.259645,-0.372534 0.225778,-0.146755 0.733778,-0.146755 0.496712,0 0.677334,0.124178 0.180623,0.124177 0.327378,0.316089 l 2.822225,3.79307 V 27.0424 q 0,-0.248356 0.04516,-0.474134 0.05644,-0.225778 0.270934,-0.372534 0.214489,-0.146755 0.722489,-0.146755 0.51929,0 0.72249,0.158044 0.214489,0.146756 0.259644,0.383823 0.04516,0.237067 0.04516,0.496711 v 5.825073 q 0,0.248356 -0.04516,0.485423 -0.04516,0.237067 -0.259644,0.395111 -0.214489,0.146756 -0.733779,0.146756 -0.383822,0 -0.587023,-0.06773 -0.191911,-0.05645 -0.327378,-0.237067 l -2.923825,-3.860804 v 3.138314 q 0,0.248356 -0.04516,0.485423 -0.04516,0.237067 -0.259645,0.395111 -0.214489,0.146756 -0.733779,0.146756 z m 7.574854,-0.01129 q -0.485423,0 -0.699912,-0.146756 -0.214489,-0.146755 -0.270933,-0.383822 -0.05645,-0.237067 -0.05645,-0.508001 v -5.836361 q 0,-0.248356 0.04516,-0.485423 0.04516,-0.237067 0.259644,-0.383823 0.214489,-0.158044 0.733779,-0.146755 h 1.941691 q 0.801512,0 1.512712,0.3048 0.711201,0.3048 1.253068,0.846668 0.553156,0.530578 0.857957,1.241779 0.316089,0.7112 0.316089,1.512712 0,0.82409 -0.316089,1.54658 -0.304801,0.722489 -0.857957,1.275645 -0.541867,0.541868 -1.264357,0.857957 -0.7112,0.3048 -1.53529,0.3048 z m 1.038579,-2.065869 h 0.914401 q 0.508,0 0.936978,-0.248356 0.428979,-0.259644 0.677334,-0.677334 0.259645,-0.428978 0.259645,-0.948267 0,-0.51929 -0.259645,-0.948268 -0.248355,-0.428978 -0.677334,-0.677334 -0.428978,-0.259645 -0.948267,-0.259645 h -0.903112 z m 6.468548,2.077158 q -0.508001,0 -0.72249,-0.146756 -0.214489,-0.158044 -0.259645,-0.395111 -0.04516,-0.248356 -0.04516,-0.496712 v -5.836361 q 0,-0.587023 0.225778,-0.801512 0.237066,-0.225778 0.835378,-0.225778 h 4.131738 q 0.259644,0 0.485422,0.04516 0.237067,0.04516 0.383823,0.259645 0.158045,0.214489 0.158045,0.733779 0,0.508 -0.158045,0.722489 -0.146756,0.214489 -0.383823,0.259645 -0.237066,0.04516 -0.496711,0.04516 h -3.115737 v 1.004713 h 2.088447 q 0.259645,0 0.462845,0.04516 0.2032,0.03387 0.327378,0.214489 0.124178,0.180623 0.124178,0.632179 0,0.428978 -0.124178,0.620889 -0.124178,0.180623 -0.338667,0.214489 -0.214489,0.03387 -0.474134,0.03387 h -2.065869 v 1.004712 h 3.127026 q 0.259644,0 0.485422,0.04516 0.237067,0.04515 0.383823,0.259645 0.158045,0.214489 0.158045,0.733778 0,0.508001 -0.158045,0.72249 -0.146756,0.214489 -0.383823,0.259644 -0.237066,0.04516 -0.496711,0.04516 z m 13.140287,-1.43369 q 0.169334,0.338667 0.180623,0.575734 0.01129,0.237066 -0.146756,0.417689 -0.158045,0.180622 -0.508,0.361245 -0.541868,0.259644 -0.835379,0.158044 -0.293512,-0.09031 -0.553156,-0.643467 l -1.919113,-3.928537 -1.896536,3.939826 q -0.270933,0.530578 -0.564445,0.620889 -0.293511,0.1016 -0.824089,-0.158044 -0.349956,-0.169334 -0.51929,-0.349956 -0.158044,-0.180623 -0.146755,-0.417689 0.01129,-0.237067 0.180622,-0.575734 l 2.833514,-5.870229 q 0.135467,-0.270933 0.395112,-0.428978 0.270933,-0.169333 0.553156,-0.169333 0.2032,0 0.372533,0.07902 0.180623,0.06773 0.327378,0.2032 0.146756,0.135467 0.237067,0.327378 z m -5.565428,-0.203201 0.857957,-1.761068 h 1.862668 l 0.857957,1.761068 z m 7.394235,1.636891 q -0.508001,0 -0.72249,-0.146756 -0.214489,-0.158044 -0.259644,-0.395111 -0.04516,-0.248356 -0.04516,-0.496712 v -5.836361 q 0,-0.248356 0.04516,-0.485423 0.04515,-0.237067 0.259644,-0.383823 0.214489,-0.158044 0.733779,-0.158044 0.519289,0 0.72249,0.158044 0.214489,0.146756 0.259644,0.383823 0.04516,0.237067 0.04516,0.496712 v 5.102583 h 2.754492 q 0.214489,0 0.4064,0.03387 0.2032,0.03387 0.327378,0.225778 0.135467,0.180623 0.135467,0.62089 0,0.428978 -0.135467,0.620889 -0.135467,0.180623 -0.338667,0.214489 -0.191911,0.04516 -0.4064,0.04516 z"
         id="text1"
         aria-label="ENDEAL"
         inkscape:label="text1" />
      <rect
         style="display:inline;fill:#ffffff;stroke-width:0.267266"
         id="rect1"
         width="28.172625"
         height="1.0039179"
         x="51.534416"
         y="34.227673" />
    </g>
  </g>
</svg>
